<svg 
  xmlns="http://www.w3.org/2000/svg" 
  width="24" 
  height="24" 
  viewBox="0 0 24 24" 
  fill="white">
  <path 
    d="M7.75 2h8.5A5.25 5.25 0 0 1 21.5 7.25v8.5A5.25 5.25 0 0 1 16.25 21h-8.5A5.25 5.25 0 0 1 2.5 15.75v-8.5A5.25 5.25 0 0 1 7.75 2Zm0-2A7.25 7.25 0 0 0 .5 7.25v8.5A7.25 7.25 0 0 0 7.75 23h8.5A7.25 7.25 0 0 0 23.5 15.75v-8.5A7.25 7.25 0 0 0 16.25 0h-8.5ZM12 6.5a5.5 5.5 0 1 1 0 11 5.5 5.5 0 0 1 0-11Zm0 2A3.5 3.5 0 1 0 12 15a3.5 3.5 0 0 0 0-7Zm6.25-2.75a1 1 0 1 1 2 0 1 1 0 0 1-2 0Z"
  />
</svg>